<?xml version="1.0" encoding="utf-8"?>
<!-- Generator: Adobe Illustrator 27.4.0, SVG Export Plug-In . SVG Version: 6.00 Build 0)  -->
<svg version="1.1" id="Layer_1" xmlns="http://www.w3.org/2000/svg" xmlns:xlink="http://www.w3.org/1999/xlink" x="0px" y="0px"
	 viewBox="0 0 11462.8 7387.4" style="enable-background:new 0 0 11462.8 7387.4;" xml:space="preserve">
<style type="text/css">
	.st0{fill:#EE313A;}
	.st1{fill:#FFF9FA;}
	.st2{fill:#2B9BD7;}
	.st3{fill:none;stroke:#FAF8EC;stroke-width:96;stroke-miterlimit:10;}
</style>
<circle class="st0" cx="5934.4" cy="3249.2" r="3134.6"/>
<circle class="st1" cx="5391.6" cy="3230.7" r="2603.3"/>
<ellipse class="st2" cx="5373.1" cy="3176.9" rx="2347.3" ry="2316.5"/>
<path class="st3" d="M3697,1360.9c0,0,1688.4,1099.4,3389.8,0"/>
<path class="st1" d="M4292.1,860.4c0,0,1062.5,1264.7,2132.8,0"/>
<path class="st1" d="M4248.3,5507.3c0,0,1062.5-1264.7,2132.8,0"/>
<path class="st3" d="M3207.3,1813.8c0,0,2166.9,1311.1,4350.9,0"/>
<path class="st3" d="M3156.5,2242.8c0,0,2227.3,1450,4471.6,0"/>
<line class="st3" x1="3025.8" y1="3176.9" x2="7720.4" y2="3176.9"/>
<path class="st3" d="M7086.9,4993.7c0,0-1688.4-1099.4-3389.8,0"/>
<path class="st3" d="M7538.9,4615.4c0,0-2157.4-1404.7-4331.6,0"/>
<path class="st3" d="M7602,4171.8c0,0-2227.3-1450-4471.6,0"/>
</svg>
